<svg xmlns="http://www.w3.org/2000/svg" width="185" height="300" viewBox="0 0 185 300">
    <rect width="100%" height="100%" fill="#212529"/>
    <path fill="#FFF"
          d="M81.105 98.645v1.63q0 .76-.42 1.39l-12.25 17.29h12.39v3.55h-18.15v-1.75q0-.33.12-.63.11-.31.3-.57l12.27-17.38h-11.91v-3.53h17.65Zm3.04 6.93h4.09v16.93h-4.09v-16.93Zm4.65-4.93q0 .53-.21.99-.22.46-.57.81-.35.34-.83.55-.48.21-1.03.21-.52 0-.99-.21t-.82-.55q-.35-.35-.55-.81-.21-.46-.21-.99 0-.55.21-1.03.2-.47.55-.82.35-.35.82-.55.47-.21.99-.21.55 0 1.03.21.48.2.83.55.35.35.57.82.21.48.21 1.03Zm3.73 4.93h4.09v16.93h-4.09v-16.93Zm4.66-4.93q0 .53-.22.99-.21.46-.57.81-.35.34-.83.55-.48.21-1.02.21-.53 0-1-.21t-.82-.55q-.35-.35-.55-.81-.21-.46-.21-.99 0-.55.21-1.03.2-.47.55-.82.35-.35.82-.55.47-.21 1-.21.54 0 1.02.21.48.2.83.55.36.35.57.82.22.48.22 1.03Zm15.74 9.4 7.88 12.46h-4.42q-.46 0-.73-.23-.27-.23-.44-.53l-5.53-9.16q-.13.42-.31.71l-5.3 8.45q-.2.28-.45.52-.26.24-.67.24h-4.14l7.92-12.28-7.61-11.58h4.42q.47 0 .67.12.21.13.39.41l5.43 8.74q.16-.41.4-.82l4.98-7.84q.18-.31.39-.46.22-.15.55-.15h4.24l-7.67 11.4Zm-52.79 28.2h3.35v23.86h-3.91v-15.41q0-.92.1-2l-7.21 13.55q-.51.97-1.57.97h-.62q-1.06 0-1.57-.97l-7.29-13.6.08 1.08q.03.52.03.97v15.41h-3.91v-23.86h3.35q.3 0 .51.02.22.01.39.08t.31.21q.14.15.27.4l7.15 13.25q.28.53.52 1.09t.47 1.15q.23-.61.48-1.18.25-.56.53-1.09l7.04-13.22q.13-.25.28-.4.15-.14.32-.21.18-.07.39-.08.22-.02.51-.02Zm8.15 6.93h4.1v16.93h-4.1v-16.93Zm4.66-4.93q0 .53-.22.99-.21.46-.57.81-.35.34-.83.55-.48.21-1.02.21-.53 0-1-.21t-.82-.55q-.34-.35-.55-.81-.21-.46-.21-.99 0-.55.21-1.03.21-.47.55-.82.35-.35.82-.55.47-.21 1-.21.54 0 1.02.21.48.2.83.55.36.35.57.82.22.48.22 1.03Zm14.85 6.76-.93 1.47q-.16.26-.34.37-.19.11-.47.11-.29 0-.63-.17-.34-.16-.78-.37-.45-.2-1.02-.37-.57-.16-1.34-.16-1.21 0-1.89.51-.69.51-.69 1.34 0 .54.36.91.35.37.94.65.58.28 1.33.51.74.22 1.51.48.76.27 1.5.6.75.34 1.33.86.59.52.94 1.25.36.72.36 1.75 0 1.22-.44 2.25t-1.29 1.78q-.86.75-2.12 1.17-1.27.42-2.92.42-.87 0-1.7-.15-.84-.16-1.6-.44-.77-.28-1.42-.66-.66-.38-1.15-.82l.94-1.56q.18-.28.43-.43.25-.14.63-.14t.71.21q.34.22.79.46.44.25 1.05.47.6.21 1.52.21.73 0 1.25-.17.52-.18.86-.46.33-.28.49-.65.16-.37.16-.77 0-.59-.36-.97-.35-.38-.94-.66-.58-.28-1.33-.5-.76-.23-1.54-.49t-1.53-.62q-.75-.35-1.34-.9-.59-.54-.94-1.33-.36-.8-.36-1.92 0-1.04.42-1.98.41-.94 1.21-1.64t2-1.12q1.19-.42 2.76-.42 1.75 0 3.18.57 1.44.58 2.4 1.52Zm14.5 0-.92 1.47q-.17.26-.35.37-.18.11-.46.11-.3 0-.64-.17-.34-.16-.78-.37-.45-.2-1.02-.37-.57-.16-1.34-.16-1.21 0-1.89.51-.68.51-.68 1.34 0 .54.35.91t.94.65q.59.28 1.33.51.74.22 1.51.48.77.27 1.51.6.74.34 1.33.86.58.52.94 1.25.35.72.35 1.75 0 1.22-.44 2.25-.43 1.03-1.29 1.78-.86.75-2.12 1.17-1.26.42-2.91.42-.88 0-1.71-.15-.83-.16-1.6-.44-.77-.28-1.42-.66-.65-.38-1.15-.82l.94-1.56q.18-.28.43-.43.25-.14.63-.14t.72.21q.34.22.78.46.45.25 1.05.47.6.21 1.52.21.73 0 1.25-.17.52-.18.86-.46.34-.28.49-.65.16-.37.16-.77 0-.59-.35-.97-.36-.38-.94-.66-.59-.28-1.34-.5-.75-.23-1.54-.49-.78-.26-1.53-.62-.75-.35-1.34-.9-.58-.54-.94-1.33-.35-.8-.35-1.92 0-1.04.41-1.98t1.21-1.64q.8-.7 2-1.12 1.2-.42 2.76-.42 1.75 0 3.19.57 1.43.58 2.39 1.52Zm3.38-1.83h4.09v16.93h-4.09v-16.93Zm4.66-4.93q0 .53-.22.99-.21.46-.57.81-.35.34-.83.55-.48.21-1.02.21-.53 0-1-.21t-.82-.55q-.35-.35-.55-.81-.21-.46-.21-.99 0-.55.21-1.03.2-.47.55-.82.35-.35.82-.55.47-.21 1-.21.54 0 1.02.21.48.2.83.55.36.35.57.82.22.48.22 1.03Zm7.12 5.67.28 1.34q.52-.51 1.09-.95.56-.44 1.2-.74.63-.31 1.36-.48.73-.17 1.58-.17 1.39 0 2.46.47 1.08.47 1.79 1.32.72.85 1.09 2.03.37 1.18.37 2.6v10.77h-4.07v-10.77q0-1.56-.71-2.41-.71-.84-2.16-.84-1.06 0-1.98.47-.93.48-1.75 1.31v12.24h-4.08v-16.93h2.49q.8 0 1.04.74Zm21.27 7.31q.76 0 1.32-.2.56-.21.93-.57.38-.37.57-.88.19-.51.19-1.12 0-1.25-.76-1.99-.75-.73-2.25-.73t-2.25.73q-.75.74-.75 1.99 0 .6.19 1.11.19.51.56.88.37.37.94.58.57.2 1.31.2Zm4.61 9.64q0-.5-.3-.81-.3-.31-.81-.49-.51-.17-1.2-.25-.68-.08-1.45-.13-.77-.04-1.58-.07-.82-.03-1.59-.13-.68.38-1.1.89-.42.51-.42 1.19 0 .44.22.83.22.39.71.67t1.26.44q.78.15 1.9.15 1.14 0 1.96-.17.83-.17 1.36-.48.54-.3.79-.73.25-.42.25-.91Zm-.81-17.11h4.86v1.52q0 .72-.87.89l-1.52.28q.35.87.35 1.91 0 1.26-.5 2.27-.51 1.02-1.4 1.72-.89.71-2.1 1.1-1.22.39-2.62.39-.49 0-.95-.05-.47-.05-.91-.13-.79.48-.79 1.07 0 .51.47.75t1.24.34q.78.1 1.77.12.99.03 2.03.11 1.04.08 2.03.29.99.21 1.76.65.78.45 1.25 1.21.47.77.47 1.98 0 1.12-.55 2.17-.56 1.06-1.61 1.89-1.04.82-2.57 1.32-1.53.51-3.47.51-1.92 0-3.34-.37-1.41-.38-2.36-.99-.94-.62-1.4-1.43-.46-.81-.46-1.68 0-1.19.72-1.99t1.97-1.28q-.68-.35-1.07-.93-.4-.57-.4-1.51 0-.38.14-.79.14-.4.41-.8.28-.39.69-.75.41-.35.97-.63-1.28-.7-2.02-1.85-.73-1.16-.73-2.71 0-1.25.5-2.27.5-1.01 1.4-1.73.9-.72 2.13-1.1 1.23-.38 2.68-.38 1.09 0 2.05.23.96.22 1.75.65Zm-92.02 44.09h3.31q1.22 0 2.13-.31.91-.3 1.51-.87.6-.57.9-1.39.3-.82.3-1.82 0-.96-.3-1.73-.3-.78-.89-1.32-.59-.55-1.5-.84-.91-.29-2.15-.29h-3.31v8.57Zm-4.44-12h7.75q2.4 0 4.14.56 1.75.56 2.89 1.57 1.14 1.01 1.69 2.41.56 1.4.56 3.07 0 1.73-.58 3.17-.58 1.45-1.73 2.49-1.16 1.04-2.9 1.61-1.74.58-4.07.58h-3.31v8.4h-4.44v-23.86Zm27.27 6.67q1.88 0 3.43.61 1.54.61 2.64 1.73 1.09 1.12 1.69 2.74.59 1.62.59 3.61 0 2.02-.59 3.63-.6 1.62-1.69 2.76-1.1 1.14-2.64 1.75-1.55.61-3.43.61-1.89 0-3.45-.61-1.55-.61-2.64-1.75-1.1-1.14-1.7-2.76-.61-1.61-.61-3.63 0-1.99.61-3.61.6-1.62 1.7-2.74 1.09-1.12 2.64-1.73 1.56-.61 3.45-.61Zm0 14.3q2.11 0 3.13-1.42 1.01-1.42 1.01-4.15 0-2.74-1.01-4.18-1.02-1.43-3.13-1.43-2.14 0-3.17 1.44-1.03 1.44-1.03 4.17 0 2.72 1.03 4.15 1.03 1.42 3.17 1.42Zm22.72-12.21-.92 1.47q-.17.27-.35.37-.18.11-.46.11-.3 0-.63-.17l-.79-.37q-.44-.2-1.01-.37-.57-.16-1.35-.16-1.2 0-1.89.51-.68.51-.68 1.34 0 .54.35.91.36.37.94.65.59.28 1.33.51.74.22 1.51.48.77.27 1.51.6.74.34 1.33.86.59.52.94 1.25.35.72.35 1.75 0 1.22-.43 2.25-.44 1.03-1.3 1.78-.86.75-2.12 1.17-1.26.42-2.91.42-.87 0-1.71-.15-.83-.16-1.6-.44-.77-.28-1.42-.66-.65-.38-1.14-.82l.94-1.56q.18-.28.43-.42.24-.15.62-.15t.72.21q.34.22.78.46.45.25 1.05.46.6.22 1.53.22.72 0 1.24-.17.52-.18.86-.46.34-.28.5-.65.15-.37.15-.77 0-.59-.35-.97-.36-.38-.94-.66-.59-.28-1.34-.5-.75-.23-1.53-.49-.79-.26-1.54-.62-.75-.35-1.33-.9-.59-.54-.94-1.33-.36-.8-.36-1.92 0-1.04.41-1.98.42-.94 1.22-1.64t1.99-1.12q1.2-.42 2.77-.42 1.75 0 3.18.57 1.44.58 2.39 1.52Zm8.9 15.36q-2.21 0-3.39-1.24-1.18-1.25-1.18-3.44v-9.46h-1.74q-.33 0-.56-.21-.23-.22-.23-.64v-1.62l2.72-.45.86-4.62q.08-.33.32-.51.23-.18.59-.18h2.11v5.33h4.52v2.9h-4.52v9.18q0 .79.39 1.23.39.45 1.06.45.38 0 .64-.09t.44-.19q.19-.1.34-.19.15-.09.3-.09.18 0 .3.09.11.09.24.27l1.23 1.98q-.9.74-2.05 1.12-1.16.38-2.39.38Zm9.85-10.67h7.69q0-.79-.23-1.49-.22-.71-.66-1.23-.45-.53-1.13-.84-.69-.3-1.6-.3-1.76 0-2.78 1-1.01 1.01-1.29 2.86Zm10.39 2.46h-10.48q.1 1.3.47 2.25.36.95.95 1.57.6.62 1.41.92.82.31 1.81.31.99 0 1.71-.24.72-.23 1.25-.51.54-.28.94-.51.41-.23.79-.23.51 0 .76.38l1.17 1.49q-.68.79-1.52 1.32-.84.54-1.76.86-.91.32-1.86.46-.95.13-1.84.13-1.77 0-3.29-.59-1.51-.58-2.64-1.73-1.12-1.15-1.76-2.84-.64-1.69-.64-3.92 0-1.73.56-3.26.56-1.52 1.61-2.65 1.04-1.13 2.55-1.79 1.51-.66 3.41-.66 1.6 0 2.95.51 1.36.51 2.33 1.49t1.53 2.41q.55 1.43.55 3.26 0 .92-.2 1.25-.2.32-.76.32Zm7.61-7.96.25 1.92q.79-1.52 1.88-2.39 1.09-.86 2.57-.86 1.17 0 1.88.51l-.26 3.05q-.08.3-.24.42-.16.13-.42.13-.25 0-.74-.09-.48-.08-.94-.08-.68 0-1.21.2-.53.2-.95.57-.42.37-.74.9t-.6 1.2v10.43h-4.08v-16.93h2.39q.63 0 .88.22.25.23.33.8Z"/>
</svg>
